<svg width="838" height="266" viewBox="0 0 838 266" fill="none" xmlns="http://www.w3.org/2000/svg">
<path d="M511.643 154.433V0H488.475L439.932 128.4L391.168 0H368V154.433H389.844V49.6393L430.003 154.433H449.64L489.799 49.6393V154.433H511.643Z" fill="#333333"/>
<path d="M571.646 43.4619C550.243 43.2413 529.061 51.6248 525.31 77.6579L545.168 81.4084C548.037 63.9795 560.614 61.5527 571.646 61.5527C583.561 61.5527 596.359 67.0681 596.359 80.5259C596.359 101.264 520.897 72.1424 520.897 123.105C520.897 160.831 578.707 167.67 596.359 135.46V154.433H618.645V86.7032C618.645 53.6104 595.256 43.6825 571.646 43.4619ZM544.286 123.105C544.286 96.1898 582.458 106.118 596.359 96.8517V106.78C596.359 149.8 544.286 150.903 544.286 123.105Z" fill="#333333"/>
<path d="M735.861 0H713.796V63.097C705.853 48.9774 692.393 42.5794 674.962 42.8001C645.836 43.0207 626.86 61.1115 626.86 99.2785C626.86 137.446 645.836 155.757 674.962 155.757C692.393 155.757 705.853 149.58 713.796 135.46V154.433H735.861V0ZM680.699 138.549C661.061 138.549 648.484 125.091 648.484 99.2785C648.484 73.4661 661.061 60.229 680.699 60.0083C698.351 59.7877 713.796 69.7156 713.796 99.2785C713.796 128.841 698.351 138.549 680.699 138.549Z" fill="#333333"/>
<path d="M744.886 124.65L765.847 120.237C767.833 132.371 778.866 138.107 791.222 138.107C804.02 138.107 816.376 132.371 816.376 119.134C816.376 94.4249 746.872 122.443 746.872 76.1135C746.872 44.3444 779.528 42.5795 791.222 42.5795C802.255 42.5795 830.498 44.1238 835.352 68.6125L815.494 74.3486C812.846 62.8764 803.579 58.9053 791.222 58.9053C778.645 58.9053 768.495 63.3176 768.495 76.1135C768.495 101.705 838 72.1424 838 119.134C838 152.889 803.358 155.757 791.222 155.757C780.19 155.757 748.416 153.11 744.886 124.65Z" fill="#333333"/>
<path d="M384.347 219.858L393.041 198.654V219.858H396.437V192.039H392.542L383.169 214.874L373.751 192.039H369.721V219.858H373.117V198.654L381.901 219.858H384.347Z" fill="#333333" fill-opacity="0.7"/>
<path d="M406.187 199.741H402.791V219.858H406.187V199.741ZM406.685 193.67C406.685 192.447 405.689 191.495 404.466 191.495C403.289 191.495 402.293 192.447 402.293 193.67C402.293 194.848 403.289 195.845 404.466 195.845C405.689 195.845 406.685 194.848 406.685 193.67Z" fill="#333333" fill-opacity="0.7"/>
<path d="M412.254 219.858H415.65V206.22C416.375 204.045 418.412 202.46 420.767 202.46C423.801 202.46 425.204 204.408 425.204 207.217V219.858H428.646V206.673C428.646 202.278 426.155 199.333 421.582 199.333C419.001 199.333 416.827 200.693 415.65 202.278V199.741H412.254V219.858Z" fill="#333333" fill-opacity="0.7"/>
<path d="M447.676 219.858H451.117V190.408H447.676V202.097C446.679 200.647 444.506 199.333 442.015 199.333C436.129 199.333 432.959 204.136 432.959 209.8C432.959 215.508 436.129 220.266 442.015 220.266C444.506 220.266 446.679 218.952 447.676 217.502V219.858ZM447.676 213.877C446.634 215.961 444.642 217.185 442.514 217.185C438.665 217.185 436.401 214.058 436.401 209.8C436.401 205.541 438.665 202.414 442.514 202.414C444.642 202.414 446.634 203.638 447.676 205.722V213.877Z" fill="#333333" fill-opacity="0.7"/>
<path d="M477.183 190.453C476.414 190.136 475.644 190 474.557 190C471.025 190 468.399 192.356 468.399 196.388V199.741H465.003V202.641H468.399V219.858H471.75V202.641H476.278V199.741H471.75V196.66C471.75 194.259 473.063 192.99 475.055 192.99C475.78 192.99 476.55 193.126 477.183 193.534V190.453Z" fill="#333333" fill-opacity="0.7"/>
<path d="M496.936 209.8C496.936 203.638 493.178 199.333 487.699 199.333C482.175 199.333 478.462 203.638 478.462 209.8C478.462 215.961 482.175 220.266 487.699 220.266C493.178 220.266 496.936 215.961 496.936 209.8ZM493.495 209.8C493.495 214.194 491.321 217.275 487.699 217.275C484.076 217.275 481.903 214.194 481.903 209.8C481.903 205.405 484.076 202.324 487.699 202.324C491.321 202.324 493.495 205.405 493.495 209.8Z" fill="#333333" fill-opacity="0.7"/>
<path d="M511.858 199.651C511.496 199.469 510.772 199.333 509.911 199.333C507.692 199.333 505.791 200.647 504.93 202.369V199.741H501.534V219.858H504.93V206.356C505.609 204 507.466 202.596 509.594 202.596C510.455 202.596 511.315 202.777 511.858 203.139V199.651Z" fill="#333333" fill-opacity="0.7"/>
<path d="M534.861 192.039L523.993 219.858H527.616L530.786 211.476H542.242L545.457 219.858H549.079L538.212 192.039H534.861ZM536.491 196.479L541.019 208.35H531.963L536.491 196.479Z" fill="#333333" fill-opacity="0.7"/>
<path d="M556.447 190.408H553.051V219.858H556.447V190.408Z" fill="#333333" fill-opacity="0.7"/>
<path d="M565.91 190.408H562.514V219.858H565.91V190.408Z" fill="#333333" fill-opacity="0.7"/>
<path d="M589.002 209.8C589.002 203.638 585.244 199.333 579.765 199.333C574.241 199.333 570.528 203.638 570.528 209.8C570.528 215.961 574.241 220.266 579.765 220.266C585.244 220.266 589.002 215.961 589.002 209.8ZM585.561 209.8C585.561 214.194 583.388 217.275 579.765 217.275C576.143 217.275 573.969 214.194 573.969 209.8C573.969 205.405 576.143 202.324 579.765 202.324C583.388 202.324 585.561 205.405 585.561 209.8Z" fill="#333333" fill-opacity="0.7"/>
<path d="M592.24 209.8C592.24 216.052 595.998 220.266 601.387 220.266C605.915 220.266 608.767 217.638 609.447 213.787H605.96C605.507 215.961 603.786 217.275 601.387 217.275C597.945 217.275 595.681 214.194 595.681 209.8C595.681 205.405 597.945 202.324 601.387 202.324C603.786 202.324 605.507 203.638 605.96 205.812H609.447C608.767 201.961 605.915 199.333 601.387 199.333C595.998 199.333 592.24 203.547 592.24 209.8Z" fill="#333333" fill-opacity="0.7"/>
<path d="M628.478 219.858V206.447C628.478 202.052 625.625 199.333 620.825 199.333C616.976 199.333 613.988 201.644 613.309 205.042H616.659C617.293 203.185 618.652 202.278 620.78 202.278C623.678 202.278 625.218 204.091 625.218 206.583V209.12C624.357 208.35 622.229 207.489 620.146 207.489C615.844 207.489 612.448 210.026 612.448 213.787C612.448 217.774 615.844 220.22 619.92 220.22C622.32 220.22 624.448 219.178 625.218 218.363V219.858H628.478ZM625.218 214.874C624.629 216.369 622.591 217.366 620.508 217.366C618.063 217.366 615.708 216.233 615.708 213.787C615.708 211.385 618.063 210.298 620.508 210.298C622.591 210.298 624.629 211.295 625.218 212.79V214.874Z" fill="#333333" fill-opacity="0.7"/>
<path d="M635.101 214.783C635.101 218.499 637.365 220.266 640.625 220.266C641.848 220.266 643.025 219.994 643.795 219.586V216.414C643.116 216.868 642.12 217.23 641.169 217.23C639.448 217.23 638.497 216.369 638.497 214.421V202.641H643.342V199.741H638.497V194.44H635.101V199.741H631.841V202.641H635.101V214.783Z" fill="#333333" fill-opacity="0.7"/>
<path d="M651.918 199.741H648.521V219.858H651.918V199.741ZM652.416 193.67C652.416 192.447 651.42 191.495 650.197 191.495C649.02 191.495 648.023 192.447 648.023 193.67C648.023 194.848 649.02 195.845 650.197 195.845C651.42 195.845 652.416 194.848 652.416 193.67Z" fill="#333333" fill-opacity="0.7"/>
<path d="M675.01 209.8C675.01 203.638 671.252 199.333 665.773 199.333C660.249 199.333 656.536 203.638 656.536 209.8C656.536 215.961 660.249 220.266 665.773 220.266C671.252 220.266 675.01 215.961 675.01 209.8ZM671.569 209.8C671.569 214.194 669.395 217.275 665.773 217.275C662.15 217.275 659.977 214.194 659.977 209.8C659.977 205.405 662.15 202.324 665.773 202.324C669.395 202.324 671.569 205.405 671.569 209.8Z" fill="#333333" fill-opacity="0.7"/>
<path d="M679.608 219.858H683.004V206.22C683.729 204.045 685.766 202.46 688.121 202.46C691.155 202.46 692.559 204.408 692.559 207.217V219.858H696V206.673C696 202.278 693.51 199.333 688.936 199.333C686.355 199.333 684.182 200.693 683.004 202.278V199.741H679.608V219.858Z" fill="#333333" fill-opacity="0.7"/>
<path d="M386.475 247.786C386.475 241.624 382.716 237.32 377.237 237.32C371.713 237.32 368 241.624 368 247.786C368 253.948 371.713 258.252 377.237 258.252C382.716 258.252 386.475 253.948 386.475 247.786ZM383.033 247.786C383.033 252.181 380.86 255.262 377.237 255.262C373.615 255.262 371.441 252.181 371.441 247.786C371.441 243.391 373.615 240.31 377.237 240.31C380.86 240.31 383.033 243.391 383.033 247.786Z" fill="#333333" fill-opacity="0.7"/>
<path d="M401.125 228.44C400.355 228.123 399.585 227.987 398.499 227.987C394.967 227.987 392.34 230.343 392.34 234.375V237.728H388.944V240.628H392.34V257.845H395.691V240.628H400.219V237.728H395.691V234.647C395.691 232.246 397.004 230.977 398.997 230.977C399.721 230.977 400.491 231.113 401.125 231.521V228.44Z" fill="#333333" fill-opacity="0.7"/>
<path d="M418.004 254.628V233.197H423.302C429.596 233.197 433.309 237.411 433.309 243.935C433.309 250.459 429.596 254.628 423.302 254.628H418.004ZM414.427 257.845H423.348C431.498 257.845 436.841 252.408 436.841 243.935C436.841 235.462 431.498 230.026 423.348 230.026H414.427V257.845Z" fill="#333333" fill-opacity="0.7"/>
<path d="M444.968 237.728H441.572V257.845H444.968V237.728ZM445.466 231.657C445.466 230.433 444.47 229.482 443.247 229.482C442.07 229.482 441.074 230.433 441.074 231.657C441.074 232.835 442.07 233.831 443.247 233.831C444.47 233.831 445.466 232.835 445.466 231.657Z" fill="#333333" fill-opacity="0.7"/>
<path d="M464.212 256.485C464.212 260.835 462.31 263.1 458.687 263.1C455.925 263.1 454.023 261.877 453.435 259.34H450.084C450.718 263.463 453.797 266 458.687 266C463.85 266 467.653 262.874 467.653 256.259V237.728H464.212V239.993C463.216 238.589 461.087 237.32 458.597 237.32C452.71 237.32 449.586 242.168 449.586 247.514C449.586 252.815 452.71 257.709 458.597 257.709C461.087 257.709 463.216 256.395 464.212 254.99V256.485ZM464.212 251.501C463.17 253.404 461.269 254.628 459.095 254.628C455.291 254.628 453.073 251.637 453.073 247.514C453.073 243.346 455.291 240.356 459.095 240.356C461.269 240.356 463.17 241.579 464.212 243.482V251.501Z" fill="#333333" fill-opacity="0.7"/>
<path d="M477.116 237.728H473.72V257.845H477.116V237.728ZM477.614 231.657C477.614 230.433 476.618 229.482 475.395 229.482C474.218 229.482 473.222 230.433 473.222 231.657C473.222 232.835 474.218 233.831 475.395 233.831C476.618 233.831 477.614 232.835 477.614 231.657Z" fill="#333333" fill-opacity="0.7"/>
<path d="M484.134 252.77C484.134 256.485 486.398 258.252 489.658 258.252C490.881 258.252 492.058 257.98 492.828 257.573V254.401C492.149 254.854 491.152 255.217 490.201 255.217C488.481 255.217 487.53 254.356 487.53 252.408V240.628H492.375V237.728H487.53V232.427H484.134V237.728H480.874V240.628H484.134V252.77Z" fill="#333333" fill-opacity="0.7"/>
<path d="M511.825 257.845V244.433C511.825 240.039 508.973 237.32 504.173 237.32C500.324 237.32 497.335 239.631 496.656 243.029H500.007C500.641 241.171 501.999 240.265 504.128 240.265C507.026 240.265 508.565 242.077 508.565 244.569V247.107C507.705 246.336 505.577 245.476 503.494 245.476C499.192 245.476 495.796 248.013 495.796 251.773C495.796 255.76 499.192 258.207 503.267 258.207C505.667 258.207 507.795 257.165 508.565 256.349V257.845H511.825ZM508.565 252.861C507.977 254.356 505.939 255.353 503.856 255.353C501.411 255.353 499.056 254.22 499.056 251.773C499.056 249.372 501.411 248.285 503.856 248.285C505.939 248.285 507.977 249.281 508.565 250.777V252.861Z" fill="#333333" fill-opacity="0.7"/>
<path d="M521.026 228.394H517.63V257.845H521.026V228.394Z" fill="#333333" fill-opacity="0.7"/>
<path d="M535.095 250.595C536.136 255.489 540.257 258.252 545.781 258.252C551.305 258.252 555.381 255.217 555.381 250.188C555.381 246.246 552.89 243.844 548.453 242.712L543.698 241.488C540.8 240.718 539.261 239.586 539.261 237.229C539.261 234.375 541.706 232.653 545.011 232.653C548.679 232.653 550.762 234.466 551.622 236.958H555.2C554.158 232.563 550.762 229.618 545.011 229.618C539.759 229.618 535.864 232.789 535.864 237.501C535.864 241.715 538.672 243.663 542.521 244.66L547.502 245.974C550.717 246.789 551.939 248.194 551.939 250.369C551.939 253.45 549.404 255.217 545.781 255.217C542.385 255.217 539.759 253.676 538.717 250.595H535.095Z" fill="#333333" fill-opacity="0.7"/>
<path d="M560.988 252.77C560.988 256.485 563.252 258.252 566.512 258.252C567.735 258.252 568.912 257.98 569.682 257.573V254.401C569.003 254.854 568.007 255.217 567.056 255.217C565.335 255.217 564.384 254.356 564.384 252.408V240.628H569.229V237.728H564.384V232.427H560.988V237.728H557.728V240.628H560.988V252.77Z" fill="#333333" fill-opacity="0.7"/>
<path d="M591.213 247.786C591.213 241.624 587.455 237.32 581.976 237.32C576.452 237.32 572.739 241.624 572.739 247.786C572.739 253.948 576.452 258.252 581.976 258.252C587.455 258.252 591.213 253.948 591.213 247.786ZM587.772 247.786C587.772 252.181 585.599 255.262 581.976 255.262C578.354 255.262 576.18 252.181 576.18 247.786C576.18 243.391 578.354 240.31 581.976 240.31C585.599 240.31 587.772 243.391 587.772 247.786Z" fill="#333333" fill-opacity="0.7"/>
<path d="M606.135 237.637C605.773 237.456 605.049 237.32 604.188 237.32C601.969 237.32 600.068 238.634 599.207 240.356V237.728H595.811V257.845H599.207V244.343C599.887 241.987 601.743 240.582 603.871 240.582C604.732 240.582 605.592 240.764 606.135 241.126V237.637Z" fill="#333333" fill-opacity="0.7"/>
<path d="M624.41 257.845V244.433C624.41 240.039 621.557 237.32 616.757 237.32C612.908 237.32 609.92 239.631 609.24 243.029H612.591C613.225 241.171 614.584 240.265 616.712 240.265C619.61 240.265 621.149 242.077 621.149 244.569V247.107C620.289 246.336 618.161 245.476 616.078 245.476C611.776 245.476 608.38 248.013 608.38 251.773C608.38 255.76 611.776 258.207 615.851 258.207C618.251 258.207 620.38 257.165 621.149 256.349V257.845H624.41ZM621.149 252.861C620.561 254.356 618.523 255.353 616.44 255.353C613.995 255.353 611.64 254.22 611.64 251.773C611.64 249.372 613.995 248.285 616.44 248.285C618.523 248.285 620.561 249.281 621.149 250.777V252.861Z" fill="#333333" fill-opacity="0.7"/>
<path d="M643.391 256.485C643.391 260.835 641.489 263.1 637.867 263.1C635.105 263.1 633.203 261.877 632.614 259.34H629.264C629.897 263.463 632.977 266 637.867 266C643.029 266 646.833 262.874 646.833 256.259V237.728H643.391V239.993C642.395 238.589 640.267 237.32 637.776 237.32C631.89 237.32 628.765 242.168 628.765 247.514C628.765 252.815 631.89 257.709 637.776 257.709C640.267 257.709 642.395 256.395 643.391 254.99V256.485ZM643.391 251.501C642.35 253.404 640.448 254.628 638.274 254.628C634.471 254.628 632.252 251.637 632.252 247.514C632.252 243.346 634.471 240.356 638.274 240.356C640.448 240.356 642.35 241.579 643.391 243.482V251.501Z" fill="#333333" fill-opacity="0.7"/>
<path d="M665.578 251.819C665.035 254.084 663.178 255.353 660.688 255.353C657.292 255.353 654.892 252.725 654.846 248.421H669.065V247.197C669.065 241.353 666.121 237.32 660.597 237.32C655.118 237.32 651.45 241.806 651.45 247.832C651.45 254.039 655.209 258.252 660.688 258.252C665.216 258.252 668.069 255.624 668.793 251.819H665.578ZM660.642 240.22C663.993 240.22 665.578 242.848 665.623 245.838H654.937C655.435 242.304 657.609 240.22 660.642 240.22Z" fill="#333333" fill-opacity="0.7"/>
<path d="M190.945 12.6624L273.898 53.1893L315.231 129.003L301.287 180.046L272.023 216.817L253.383 226.904C250.758 228.335 248.491 230.248 246.687 232.627L232.564 251.066L205.604 217.801C201.586 212.847 195.623 210.003 189.249 210.003C188.213 210.003 187.178 210.074 186.16 210.235L148.647 215.815L111.563 201.883L91.4407 174.108C87.6555 168.886 81.817 165.72 75.3893 165.416L29.8062 163.27L12.9336 111.655L53.1959 57.2133L106.206 28.097L190.945 12.6624ZM191.445 0C190.909 0 190.356 0.0536543 189.82 0.143078L103.35 15.8996C102.439 16.0605 101.564 16.3824 100.761 16.8117L46.429 46.6435C45.3398 47.2336 44.3935 48.0563 43.6615 49.0579L1.6851 105.824C0.0424698 108.06 -0.439607 110.957 0.417418 113.604L18.7185 169.744C19.8255 173.124 22.8965 175.485 26.4674 175.646L74.7644 177.935C77.3712 178.061 79.7637 179.366 81.2992 181.459L102.118 210.2C103.1 211.559 104.475 212.596 106.046 213.186L145.201 227.888C146.165 228.245 147.183 228.442 148.219 228.442C148.647 228.442 149.058 228.406 149.468 228.353L187.981 222.629C188.41 222.576 188.82 222.54 189.249 222.54C191.802 222.54 194.266 223.685 195.891 225.706L225.994 262.834C227.708 264.945 230.172 266 232.636 266C235.1 266 237.724 264.873 239.438 262.638L256.597 240.228C257.329 239.262 258.257 238.475 259.328 237.903L278.665 227.44C279.683 226.886 280.575 226.135 281.29 225.241L312.66 185.841L327.694 130.773C328.283 128.627 328.015 126.338 326.944 124.389L284.254 46.0711C283.396 44.5152 282.093 43.2453 280.486 42.4763L195.409 0.912123C194.159 0.304041 192.802 0 191.445 0Z" fill="#2B38F3"/>
<path d="M15.1641 111.779L86.6364 174.859L221.707 124.889L148.789 220.179" stroke="#2B38F3" stroke-width="12" stroke-linecap="round" stroke-linejoin="round"/>
<path d="M304.664 182.013L237.084 180.457L221.711 124.889L311.431 128.698" stroke="#2B38F3" stroke-width="12" stroke-linecap="round" stroke-linejoin="round"/>
<path d="M190.164 214.029L237.086 180.459L252.548 233.398" stroke="#2B38F3" stroke-width="12" stroke-linecap="round" stroke-linejoin="round"/>
<path d="M86.6406 174.858L107.638 27.6484L221.711 124.888L272.08 52.6871" stroke="#2B38F3" stroke-width="12" stroke-linecap="round" stroke-linejoin="round"/>
</svg>
