<svg width="109" height="89" viewBox="0 0 109 89" fill="none" xmlns="http://www.w3.org/2000/svg">
<path d="M63.3445 4.20066L90.8635 17.6451L104.576 42.7957L99.9496 59.7288L90.2415 71.9273L84.0578 75.2736C83.1871 75.7483 82.4348 76.3831 81.8366 77.1722L77.1514 83.2893L68.2074 72.2537C66.8747 70.6102 64.8963 69.6668 62.7818 69.6668C62.4382 69.6668 62.0947 69.6905 61.7571 69.7439L49.3125 71.5951L37.0101 66.9732L30.3347 57.759C29.079 56.0265 27.1421 54.9764 25.0098 54.8755L9.88799 54.1635L4.29061 37.0405L17.6473 18.9801L35.2332 9.32095L63.3445 4.20066ZM63.5103 0C63.3326 0 63.149 0.0177994 62.9713 0.047465L34.2855 5.27455C33.9834 5.32795 33.6932 5.43475 33.4266 5.57714L15.4024 15.4736C15.0411 15.6694 14.7272 15.9423 14.4844 16.2746L0.559019 35.1063C0.014089 35.848 -0.145836 36.8091 0.138475 37.6872L6.20971 56.3113C6.57695 57.4327 7.59573 58.2159 8.78036 58.2693L24.8025 59.0287C25.6673 59.0702 26.461 59.5034 26.9704 60.1975L33.8768 69.7321C34.2025 70.183 34.6586 70.5271 35.1799 70.7229L48.1694 75.5999C48.4892 75.7186 48.8268 75.7839 49.1704 75.7839C49.3125 75.7839 49.4488 75.772 49.585 75.7542L62.3612 73.8556C62.5034 73.8378 62.6396 73.8259 62.7818 73.8259C63.6288 73.8259 64.4462 74.2057 64.9852 74.8761L74.9716 87.1933C75.5403 87.8934 76.3577 88.2434 77.175 88.2434C77.9924 88.2434 78.8632 87.8697 79.4318 87.128L85.1239 79.6938C85.3668 79.3734 85.6748 79.1124 86.0302 78.9225L92.445 75.4516C92.7826 75.2677 93.0787 75.0185 93.3157 74.7218L103.723 61.6512L108.71 43.383C108.905 42.6711 108.817 41.9116 108.461 41.2649L94.2989 15.2837C94.0146 14.7676 93.5822 14.3463 93.0491 14.0912L64.8253 0.30259C64.4107 0.100863 63.9605 0 63.5103 0Z" fill="#2B38F3"/>
<path d="M5.03027 37.0818L28.7407 58.0079L73.5494 41.4308L49.3592 73.0425" stroke="#2B38F3" stroke-width="3.98091" stroke-linecap="round" stroke-linejoin="round"/>
<path d="M101.07 60.3811L78.6506 59.8649L73.5508 41.4307L103.315 42.6944" stroke="#2B38F3" stroke-width="3.98091" stroke-linecap="round" stroke-linejoin="round"/>
<path d="M63.085 71.0022L78.651 59.8657L83.7805 77.4278" stroke="#2B38F3" stroke-width="3.98091" stroke-linecap="round" stroke-linejoin="round"/>
<path d="M28.7422 58.0077L35.7078 9.17212L73.5509 41.4305L90.2601 17.4785" stroke="#2B38F3" stroke-width="3.98091" stroke-linecap="round" stroke-linejoin="round"/>
</svg>
